#!OML:ASF H:\Martial Arts Walks\Project 1\Capture day 1\Session 1\male.ASF
:FULLY-SPECIFIED
:DEGREES
1105
root -5.34906 16.3966 21.6469 -16.8671 -26.344 17.8568
lowerback 22.7153 0.0560931 1.01903
upperback 3.31172 -0.105429 -3.49352
thorax -9.05809 -0.173814 -4.40579
lowerneck -3.82332 4.69284 -4.09302
upperneck 4.996 6.65149 -2.5825
head 2.17468 3.16017 0.0733781
rclavicle -4.37326e-015 -3.02153e-014
rhumerus -31.0529 19.8971 -55.4114
rradius 78.6815
rwrist 12.6795
rhand -16.4051 -35.3847
rfingers 7.12502
rthumb 9.80937 -65.1362
lclavicle -4.37326e-015 -3.02153e-014
lhumerus -10.119 3.43277 53.3918
lradius 84.0078
lwrist 28.1411
lhand -26.1389 10.3451
lfingers 7.12502
lthumb 0.411575 40.3244
rfemur -18.9214 1.4107 8.55267
rtibia 52.6902
rfoot -18.6863 1.35536
rtoes 4.75125
lfemur -60.102 33.9202 3.78684
ltibia 116.23
lfoot -19.2475 -0.0595165
ltoes -11.5653
1106
root -5.26397 16.515 21.8007 -19.2194 -28.987 20.2468
lowerback 23.6238 0.707233 0.557951
upperback 3.5581 0.545391 -4.10511
thorax -9.20894 0.133071 -5.04033
lowerneck -3.83286 4.96613 -3.91819
upperneck 5.31257 7.04934 -3.10023
head 2.30572 3.33679 -0.100148
rclavicle -2.26615e-014 6.20208e-014
rhumerus -28.7488 21.0138 -54.8208
rradius 78.3519
rwrist 13.0817
rhand -16.2355 -35.6972
rfingers 7.12502
rthumb 9.97296 -65.4409
lclavicle -2.26615e-014 6.20208e-014
lhumerus -11.8677 5.10865 52.7422
lradius 82.7909
lwrist 28.1665
lhand -25.9275 10.0844
lfingers 7.12502
lthumb 0.615732 40.0633
rfemur -17.8003 1.4427 6.83958
rtibia 51.6404
rfoot -18.1479 1.65645
rtoes 3.62719
lfemur -60.9434 35.7761 6.00072
ltibia 116.456
lfoot -19.7445 -0.20198
ltoes -10.7248
1107
root -5.17783 16.6445 21.9561 -21.7481 -31.5191 22.9691
lowerback 24.4126 1.3611 0.0297659
upperback 3.82839 1.16087 -4.78478
thorax -9.2617 0.424155 -5.71468
lowerneck -4.04787 5.27046 -3.84334
upperneck 5.74769 7.50055 -3.38255
head 2.50403 3.53806 -0.173073
rclavicle 4.21423e-014 -3.65764e-014
rhumerus -26.2417 22.0246 -54.1744
rradius 77.9265
rwrist 13.3539
rhand -16.2576 -35.787
rfingers 7.12502
rthumb 9.9516 -65.5318
lclavicle 4.21423e-014 -3.65764e-014
lhumerus -13.4643 6.79083 51.9915
lradius 81.4199
lwrist 28.0266
lhand -26.2118 9.66393
lfingers 7.12502
lthumb 0.341147 39.6434
rfemur -17.1018 1.08898 5.01685
rtibia 50.7856
rfoot -17.0869 1.91261
rtoes 2.47801
lfemur -61.4364 37.5378 8.25781
ltibia 116.24
lfoot -20.1668 -0.0164682
ltoes -9.9665
1108
root -5.0899 16.7743 22.1136 -24.4304 -33.9058 25.8669
lowerback 25.4033 2.03125 -0.584668
upperback 3.94773 1.75229 -5.39718
thorax -9.58607 0.697785 -6.29334
lowerneck -3.95126 5.53956 -3.74479
upperneck 5.95965 7.88437 -3.7842
head 2.58018 3.71209 -0.302722
rclavicle -2.28602e-014 5.725e-014
rhumerus -23.7595 23.2174 -53.401
rradius 77.481
rwrist 13.4936
rhand -16.0922 -35.9611
rfingers 7.12502
rthumb 10.1112 -65.6982
lclavicle -2.28602e-014 5.725e-014
lhumerus -15.1964 8.35918 51.2588
lradius 79.9638
lwrist 27.677
lhand -26.1877 9.31564
lfingers 7.12502
lthumb 0.364496 39.2951
rfemur -16.6421 0.357056 3.21782
rtibia 50.1133
rfoot -15.7121 2.22033
rtoes 3.64489
lfemur -61.6217 39.0667 10.6389
ltibia 115.448
lfoot -20.2889 0.898217
ltoes -8.97429
1109
root -5.00681 16.9155 22.2728 -27.384 -36.0275 29.1966
lowerback 26.2223 2.71518 -1.35975
upperback 4.12291 2.29244 -6.09171
thorax -9.75836 0.952112 -6.86398
lowerneck -4.02242 5.73985 -3.61306
upperneck 6.16508 8.18903 -4.24217
head 2.69206 3.84289 -0.452684
rclavicle 8.18993e-014 -1.59028e-015
rhumerus -21.1997 24.2571 -52.5476
rradius 77.0518
rwrist 13.6134
rhand -16.2351 -36.4363
rfingers 7.12502
rthumb 9.97333 -66.18
lclavicle 8.18993e-014 -1.59028e-015
lhumerus -16.7759 9.83385 50.46
lradius 78.4524
lwrist 27.2313
lhand -26.2989 9.25253
lfingers 7.12502
lthumb 0.257062 39.2321
rfemur -16.3707 -0.775533 1.21321
rtibia 49.5185
rfoot -14.1955 2.19983
rtoes 4.61929
lfemur -61.4219 40.0793 12.7836
ltibia 113.804
lfoot -20.1296 2.38202
ltoes -7.29383
